<svg width="190" height="60" viewBox="0 0 190 60" fill="none" xmlns="http://www.w3.org/2000/svg"><path fill-rule="evenodd" clip-rule="evenodd" d="M52.926 22.35h2.881l5.74 14.15h-2.952l-1.168-2.915h-6.09L50.123 36.5H47.17l5.756-14.15zm1.458 3.75l-2.002 4.86h3.993l-1.99-4.86zm11.805-.066v1.154a5.23 5.23 0 0 1 1.623-1.068 4.907 4.907 0 0 1 1.867-.356c1.44 0 2.665.516 3.673 1.549s1.512 2.357 1.512 3.973c0 1.559-.522 2.862-1.563 3.91-1.041 1.049-2.276 1.574-3.703 1.574a4.808 4.808 0 0 1-1.776-.324c-.548-.213-1.092-.565-1.633-1.052v4.934h-2.75V26.034h2.75zm2.912 2.155c-.873 0-1.597.281-2.172.846-.574.565-.862 1.302-.862 2.212 0 .93.288 1.682.862 2.257.575.573 1.3.86 2.172.86.845 0 1.557-.292 2.136-.875.578-.584.867-1.328.867-2.232 0-.898-.284-1.633-.852-2.207-.569-.574-1.285-.861-2.15-.861zm10.805-2.155v1.154a5.23 5.23 0 0 1 1.624-1.068 4.903 4.903 0 0 1 1.867-.356c1.44 0 2.664.516 3.672 1.549s1.512 2.357 1.512 3.973c0 1.559-.521 2.862-1.563 3.91-1.041 1.049-2.276 1.574-3.703 1.574a4.808 4.808 0 0 1-1.776-.324c-.547-.213-1.092-.565-1.633-1.052v4.934h-2.749V26.034h2.75zm2.912 2.155c-.872 0-1.596.281-2.172.846-.574.565-.862 1.302-.862 2.212 0 .93.288 1.682.862 2.257.576.573 1.3.86 2.172.86.845 0 1.558-.292 2.136-.875.578-.584.868-1.328.868-2.232 0-.898-.285-1.633-.853-2.207-.569-.574-1.285-.861-2.15-.861zM90.57 36.5h2.77V21.994h-2.77V36.5zm6.366-14.776c.485 0 .902.166 1.25.5.346.333.52.738.52 1.212a1.6 1.6 0 0 1-.516 1.198c-.343.33-.754.495-1.234.495-.492 0-.912-.168-1.26-.505a1.645 1.645 0 0 1-.52-1.226c0-.462.172-.856.515-1.183.345-.327.76-.491 1.245-.491zm-1.385 14.775h2.77V26.033h-2.77v10.466zm16.092-8.349l-2.307 1.202c-.433-.43-.861-.727-1.285-.894-.422-.167-.918-.25-1.488-.25-1.035 0-1.873.293-2.514.879-.64.586-.96 1.337-.96 2.252 0 .89.309 1.617.925 2.18.616.564 1.425.846 2.427.846 1.24 0 2.205-.401 2.895-1.203l2.185 1.417c-1.184 1.46-2.855 2.19-5.012 2.19-1.941 0-3.462-.545-4.561-1.635-1.099-1.09-1.648-2.367-1.648-3.83 0-1.012.266-1.945.801-2.798.534-.853 1.28-1.523 2.237-2.01.957-.488 2.028-.732 3.211-.732 1.096 0 2.081.207 2.952.62a5.533 5.533 0 0 1 2.142 1.766zm10.643-2.116h2.77V36.5h-2.77v-1.106c-.541.487-1.083.839-1.627 1.052a4.748 4.748 0 0 1-1.768.324c-1.426 0-2.659-.525-3.699-1.574-1.041-1.048-1.56-2.351-1.56-3.91 0-1.616.502-2.94 1.509-3.973s2.229-1.549 3.669-1.549c.662 0 1.284.12 1.865.356.58.238 1.118.593 1.611 1.068v-1.154zm-2.912 2.155c-.856 0-1.567.287-2.134.86-.566.575-.849 1.31-.849 2.208 0 .904.288 1.648.864 2.232.577.583 1.286.876 2.129.876.87 0 1.591-.288 2.164-.861.573-.575.859-1.326.859-2.257 0-.91-.286-1.647-.859-2.212-.573-.565-1.297-.846-2.174-.846zm8.817-6.013h2.77v3.858h1.643v2.26h-1.643V36.5h-2.77v-8.206h-1.421v-2.26h1.421v-3.858zm5.884 3.857h2.8v5.041c0 .981.072 1.663.214 2.044.143.382.371.678.687.89.315.211.702.318 1.164.318.461 0 .853-.105 1.175-.313.322-.209.561-.515.717-.92.115-.3.173-.945.173-1.933v-5.127h2.769v4.435c0 1.828-.152 3.078-.456 3.751-.372.821-.92 1.451-1.644 1.891-.724.438-1.643.66-2.759.66-1.211 0-2.19-.258-2.937-.77-.748-.514-1.274-1.23-1.578-2.146-.217-.635-.325-1.79-.325-3.463v-4.358zm11.83.001h2.375v1.317c.257-.519.598-.914 1.025-1.183a2.571 2.571 0 0 1 1.4-.404c.358 0 .733.09 1.125.27l-.862 2.26c-.325-.154-.591-.23-.801-.23-.427 0-.787.25-1.081.75-.294.5-.441 1.481-.441 2.943l.01.51V36.5h-2.75V26.034zm18.354 5.992h-8.897c.128.744.471 1.336 1.029 1.775.558.44 1.27.659 2.136.659 1.035 0 1.924-.343 2.669-1.029l2.333 1.039c-.582.782-1.279 1.361-2.09 1.736-.812.375-1.776.563-2.892.563-1.732 0-3.141-.518-4.231-1.554-1.089-1.035-1.634-2.332-1.634-3.89 0-1.598.543-2.923 1.63-3.978 1.085-1.056 2.446-1.583 4.083-1.583 1.738 0 3.151.527 4.241 1.583 1.089 1.055 1.634 2.448 1.634 4.179l-.011.5zm-2.77-2.068c-.182-.583-.544-1.058-1.082-1.424-.539-.365-1.164-.548-1.875-.548-.772 0-1.45.206-2.032.616-.367.256-.705.709-1.017 1.356h6.006zM34.235 18.959c-5.1 0-9.235 3.92-9.235 8.756 0 4.835 4.135 8.756 9.235 8.756h9.235v-8.756c0-4.836-4.134-8.756-9.235-8.756z" fill="#000"/><path fill-rule="evenodd" clip-rule="evenodd" d="M38.853 27.715c0 2.418-2.068 4.378-4.617 4.378-2.551 0-4.618-1.96-4.618-4.378 0-2.419 2.067-4.379 4.618-4.379 2.55 0 4.617 1.96 4.617 4.379z" fill="#fff"/><path fill-rule="evenodd" clip-rule="evenodd" d="M37.839 27.715c0 1.887-1.614 3.416-3.604 3.416s-3.603-1.529-3.603-3.416 1.613-3.417 3.603-3.417c1.99 0 3.604 1.53 3.604 3.417z" fill="#000"/><rect width="190" height="60" rx="5" fill="#fff" fill-opacity=".7"/></svg>