<svg width="190" height="60" viewBox="0 0 190 60" fill="none" xmlns="http://www.w3.org/2000/svg"><mask id="a" maskUnits="userSpaceOnUse" x="25" y="16" width="30" height="30"><path fill-rule="evenodd" clip-rule="evenodd" d="M25 16.4h29.043v29.046H25V16.4z" fill="#fff"/></mask><g mask="url(#a)"><path fill-rule="evenodd" clip-rule="evenodd" d="M53.609 34.436c-1.94 7.78-9.82 12.516-17.601 10.575-7.779-1.939-12.513-9.82-10.573-17.6 1.939-7.782 9.818-12.517 17.598-10.576 7.781 1.939 12.515 9.82 10.576 17.6z" fill="#B0B2B4"/></g><path fill-rule="evenodd" clip-rule="evenodd" d="M45.925 28.854c.29-1.932-1.182-2.971-3.195-3.664l.654-2.618-1.594-.398-.635 2.55c-.42-.105-.85-.203-1.277-.301l.64-2.566-1.592-.397-.654 2.617a45.92 45.92 0 0 1-1.018-.24l.003-.008-2.198-.547-.424 1.7s1.183.272 1.158.29c.645.16.761.587.742.926l-.744 2.982c.045.011.103.028.166.053a7.356 7.356 0 0 0-.168-.042l-1.042 4.178c-.078.196-.28.49-.73.378.016.024-1.159-.289-1.159-.289l-.79 1.825 2.073.516c.386.097.764.199 1.135.294l-.66 2.648 1.593.397.653-2.62c.434.118.857.226 1.27.33l-.65 2.607 1.592.397.66-2.643c2.717.514 4.76.307 5.62-2.15.694-1.979-.034-3.121-1.464-3.864 1.042-.241 1.826-.926 2.035-2.341zm-3.64 5.104c-.493 1.98-3.825.91-4.906.641l.876-3.507c1.08.27 4.543.804 4.03 2.866zm.492-5.132c-.449 1.8-3.222.885-4.123.66l.794-3.181c.899.225 3.797.642 3.33 2.521z" fill="#fff"/><path fill-rule="evenodd" clip-rule="evenodd" d="M67.56 25.187c1.177 0 2.195.211 3.05.626.86.418 1.568.981 2.137 1.69a7.132 7.132 0 0 1 1.248 2.5c.268.957.402 1.986.402 3.087 0 1.692-.31 3.291-.936 4.798-.626 1.509-1.475 2.818-2.555 3.935a12.05 12.05 0 0 1-3.824 2.643c-1.467.65-3.062.975-4.774.975-.222 0-.612-.007-1.162-.019a16.739 16.739 0 0 1-1.89-.163 22.27 22.27 0 0 1-2.26-.444 11.304 11.304 0 0 1-2.263-.808l6.359-26.72 5.696-.884-2.276 9.483a8.82 8.82 0 0 1 1.468-.514 6.53 6.53 0 0 1 1.58-.185zm-4.777 15.735c.857 0 1.666-.21 2.425-.625a6.378 6.378 0 0 0 1.968-1.673 8.41 8.41 0 0 0 1.305-2.373c.318-.88.477-1.8.477-2.758 0-1.176-.196-2.093-.588-2.756-.392-.66-1.116-.993-2.168-.993-.345 0-.79.066-1.34.183a3.367 3.367 0 0 0-1.491.775l-2.425 10.07c.146.026.276.05.386.073.108.026.227.043.346.056.126.014.27.02.444.02h.66zm17.521 4.008h-5.44l4.594-19.333h5.477l-4.631 19.332zm2.647-21.69a3.384 3.384 0 0 1-2.06-.677c-.614-.45-.92-1.144-.92-2.078 0-.514.104-.995.312-1.45a3.86 3.86 0 0 1 .828-1.177 4.082 4.082 0 0 1 1.195-.791 3.647 3.647 0 0 1 1.453-.293c.759 0 1.445.225 2.058.679.61.455.917 1.148.917 2.076 0 .517-.104 1-.312 1.455a3.81 3.81 0 0 1-.826 1.176c-.34.33-.742.592-1.195.79a3.595 3.595 0 0 1-1.45.29zm6.752-2.46l5.698-.882-1.399 5.698h6.103l-1.103 4.483h-6.065l-1.616 6.763a7.586 7.586 0 0 0-.257 1.578c-.027.493.035.914.183 1.27.146.355.409.631.79.824.379.198.922.297 1.635.297.586 0 1.159-.056 1.712-.166a11.77 11.77 0 0 0 1.669-.46l.406 4.192c-.734.27-1.53.501-2.389.697-.858.198-1.876.293-3.052.293-1.69 0-3-.25-3.934-.75-.932-.503-1.59-1.19-1.985-2.061-.389-.867-.563-1.868-.514-2.995.05-1.129.22-2.316.514-3.566l3.604-15.215zm10.162 16.43c0-1.666.269-3.235.808-4.705a11.604 11.604 0 0 1 2.317-3.863c1.002-1.099 2.222-1.968 3.66-2.608 1.428-.636 3.029-.956 4.793-.956 1.105 0 2.09.105 2.958.313a12.03 12.03 0 0 1 2.373.826l-1.876 4.267c-.49-.198-.999-.373-1.526-.533-.525-.162-1.167-.24-1.927-.24-1.818 0-3.253.626-4.321 1.874-1.065 1.249-1.6 2.929-1.6 5.037 0 1.25.27 2.26.811 3.032.537.773 1.533 1.158 2.976 1.158.713 0 1.4-.074 2.058-.22.664-.147 1.25-.331 1.767-.55l.406 4.372c-.688.268-1.448.509-2.279.72-.835.203-1.827.31-2.98.31-1.519 0-2.805-.223-3.858-.661-1.053-.444-1.922-1.035-2.608-1.783a6.738 6.738 0 0 1-1.49-2.63 10.83 10.83 0 0 1-.462-3.16zm24.168 8.231c-1.299 0-2.428-.197-3.384-.589-.953-.39-1.743-.94-2.369-1.655-.626-.708-1.095-1.548-1.415-2.516-.321-.967-.475-2.04-.475-3.212 0-1.473.237-2.946.714-4.415a12.495 12.495 0 0 1 2.116-3.967 11.284 11.284 0 0 1 3.416-2.89c1.344-.745 2.891-1.12 4.628-1.12 1.275 0 2.397.199 3.367.59.965.39 1.76.944 2.388 1.654a7.168 7.168 0 0 1 1.413 2.517c.319.966.477 2.042.477 3.216 0 1.468-.232 2.94-.695 4.413a12.764 12.764 0 0 1-2.058 3.97 10.802 10.802 0 0 1-3.4 2.883c-1.358.748-2.935 1.121-4.723 1.121zm2.719-15.73c-.807 0-1.521.234-2.131.696a6.044 6.044 0 0 0-1.542 1.765 8.767 8.767 0 0 0-.939 2.335 10.022 10.022 0 0 0-.311 2.407c0 1.226.199 2.182.587 2.87.393.683 1.103 1.028 2.132 1.028.809 0 1.519-.233 2.132-.7a6.035 6.035 0 0 0 1.543-1.765 8.749 8.749 0 0 0 .939-2.333c.206-.845.311-1.648.311-2.407 0-1.224-.197-2.183-.589-2.869-.392-.684-1.103-1.027-2.132-1.027zm14.086 15.219h-5.445l4.595-19.333h5.48l-4.63 19.332zm2.643-21.69a3.375 3.375 0 0 1-2.057-.677c-.613-.45-.919-1.144-.919-2.078 0-.514.105-.995.312-1.45a3.84 3.84 0 0 1 .827-1.177 4.093 4.093 0 0 1 1.196-.791 3.625 3.625 0 0 1 1.449-.293c.76 0 1.447.225 2.059.679.613.455.921 1.148.921 2.076 0 .517-.109 1-.315 1.455a3.825 3.825 0 0 1-.824 1.176 4.05 4.05 0 0 1-1.194.79 3.606 3.606 0 0 1-1.455.29z" fill="#6D6F71"/><mask id="b" maskUnits="userSpaceOnUse" x="144" y="25" width="21" height="20"><path fill-rule="evenodd" clip-rule="evenodd" d="M144.94 25.151h19.167v19.777H144.94V25.15z" fill="#fff"/></mask><g mask="url(#b)"><path fill-rule="evenodd" clip-rule="evenodd" d="M149.389 26.476c.413-.12.873-.266 1.375-.424a18.393 18.393 0 0 1 1.694-.437 20.02 20.02 0 0 1 2.094-.333 23.18 23.18 0 0 1 2.625-.13c2.87 0 4.847.835 5.939 2.501 1.092 1.666 1.279 3.945.572 6.836l-2.503 10.439h-5.475l2.425-10.22c.148-.637.264-1.255.351-1.857.085-.597.081-1.125-.021-1.58a1.882 1.882 0 0 0-.678-1.103c-.358-.282-.901-.423-1.636-.423-.709 0-1.431.077-2.167.224l-3.566 14.957h-5.478l4.449-18.45z" fill="#6D6F71"/></g><rect width="190" height="60" rx="5" fill="#fff" fill-opacity=".5"/></svg>