<svg width="199" height="60" viewBox="0 0 199 60" fill="none" xmlns="http://www.w3.org/2000/svg"><mask id="a" maskUnits="userSpaceOnUse" x="30" y="25" width="4" height="12"><path fill-rule="evenodd" clip-rule="evenodd" d="M30 25.526h3.895v11.437H30V25.526z" fill="#fff"/></mask><g mask="url(#a)"><path fill-rule="evenodd" clip-rule="evenodd" d="M32.814 30.815c-.001-1.327.24-2.643.712-3.884l-2.46-1.405a13.682 13.682 0 0 0 .39 11.437l2.44-1.392a10.91 10.91 0 0 1-1.082-4.756z" fill="#797A7D"/></g><path fill-rule="evenodd" clip-rule="evenodd" d="M64.627 24.078c0-4.178 1.982-6.267 5.948-6.267a8.961 8.961 0 0 1 2.512.35c.807.236 1.21.53 1.21.881 0 .258-.14.598-.417 1.021-.28.424-.526.635-.74.633a1.82 1.82 0 0 1-.374-.14 5.389 5.389 0 0 0-2.244-.423c-2.054 0-3.08 1.33-3.08 3.988 0 2.659 1.014 3.988 3.046 3.988a5.95 5.95 0 0 0 2.458-.529c.146-.076.302-.135.463-.175.25 0 .487.202.712.608.183.278.298.595.338.924 0 .47-.44.834-1.318 1.093a9.378 9.378 0 0 1-2.654.386c-1.994 0-3.47-.515-4.424-1.544-.956-1.03-1.434-2.628-1.436-4.794zm11.328 5.668v-5.58a10.864 10.864 0 0 0-.107-1.85 5.258 5.258 0 0 1-.108-.633c0-.188.241-.33.723-.423a6.178 6.178 0 0 1 1.078-.14c.161-.015.322.01.472.069a.495.495 0 0 1 .195.22c.048.1.084.181.108.247.034.106.061.216.08.326.03.152.05.247.062.281.5-.891 1.146-1.337 1.942-1.337.38 0 .644.096.792.29.147.189.226.421.223.66a3.47 3.47 0 0 1-.16.924c-.106.37-.237.555-.39.555a1.792 1.792 0 0 1-.375-.07 1.85 1.85 0 0 0-.463-.072c-.594 0-1.069.294-1.424.881v5.65c0 .375-.356.564-1.068.564h-.498c-.722 0-1.082-.188-1.082-.562zm5.591-8.327c0-.258.362-.387 1.086-.387h.57c.582 0 .915.125.998.372l1.05 3.253c.107.328.273 1.037.499 2.125h.07c.238-1.129.404-1.836.498-2.125l1.05-3.255c.084-.246.416-.37.998-.371h.428c.712 0 1.068.128 1.068.386a1.271 1.271 0 0 1-.053.316L85.73 33.537c-.096.246-.428.37-.998.371h-.303c-.712 0-1.068-.124-1.068-.37 0-.11.025-.218.07-.317l1.127-2.948-2.93-8.538a1.616 1.616 0 0 1-.083-.316zm9.634 11.925v-9.178a10.858 10.858 0 0 0-.106-1.85 5.084 5.084 0 0 1-.108-.633c0-.188.24-.329.72-.423a6.178 6.178 0 0 1 1.079-.14c.16-.015.322.01.472.069a.5.5 0 0 1 .196.22c.04.082.076.168.106.254.034.105.06.21.08.317.031.14.052.228.063.265.224-.398.554-.726.953-.95.435-.25.93-.379 1.433-.37.986 0 1.787.418 2.404 1.257.618.84.926 1.998.926 3.475 0 1.474-.329 2.636-.988 3.486-.659.85-1.582 1.276-2.769 1.276a3.044 3.044 0 0 1-1.816-.546v3.475c0 .376-.356.563-1.068.563h-.498c-.719-.007-1.078-.196-1.078-.567zm3.883-4.982c1.103 0 1.656-.884 1.656-2.65 0-1.768-.48-2.653-1.441-2.657-.57 0-1.057.346-1.461 1.039v3.926c.379.216.809.331 1.246.334v.008zm9.725-.008l.48-.071c.154 0 .284.173.391.519.085.241.139.494.159.749 0 .575-.569.863-1.708.863-1.734 0-2.601-.95-2.601-2.852v-4.439h-.286c-.356 0-.535-.293-.535-.88v-.288c0-.587.179-.88.535-.88h.286l.234-1.682c.06-.375.381-.563.963-.563h.552c.594 0 .891.188.891.563v1.672h.873c.357 0 .535.293.535.88v.3c0 .587-.178.88-.535.88h-.876v4.472c0 .505.214.757.642.757zm3.294.836c-.736-.816-1.103-1.993-1.103-3.53 0-1.538.367-2.708 1.103-3.512.736-.81 1.81-1.214 3.224-1.214 1.414 0 2.486.404 3.214 1.214.725.804 1.088 1.975 1.088 3.514 0 1.538-.365 2.714-1.096 3.53-.73.816-1.801 1.224-3.214 1.224-1.412 0-2.484-.41-3.216-1.226zm1.562-3.52c0 1.79.55 2.685 1.648 2.685 1.099 0 1.648-.896 1.648-2.685 0-1.79-.549-2.686-1.648-2.686-1.098 0-1.646.895-1.642 2.686h-.006zm11.082-7.367c0-.258.362-.387 1.086-.387h.586c.593 0 .944.17 1.051.51l2.602 8.24h.073l2.671-8.24c.119-.34.468-.51 1.051-.51h.552c.712 0 1.068.129 1.068.387-.002.107-.02.214-.053.316l-3.846 11.32c-.083.246-.416.369-.998.37h-.926c-.581 0-.914-.123-.998-.37l-3.847-11.32a1.627 1.627 0 0 1-.072-.316zm11.646 9.542a4.235 4.235 0 0 1 .09-.898c.08-.313.219-.609.411-.87.22-.32.512-.585.855-.773.842-.492 2.094-.74 3.757-.74v-.578c0-.67-.463-1.004-1.389-1.004-.659 0-1.31.145-1.905.423-.12.06-.246.107-.376.14-.178 0-.376-.181-.596-.546a1.856 1.856 0 0 1-.329-.85c0-.317.329-.6.988-.846a6.912 6.912 0 0 1 2.413-.371c2.553 0 3.83.98 3.83 2.94v3.295a13.18 13.18 0 0 0 .107 1.83l.107.722c0 .188-.239.329-.72.422a6.165 6.165 0 0 1-1.078.141 1.034 1.034 0 0 1-.473-.07.481.481 0 0 1-.194-.236c-.047-.113-.085-.194-.108-.265a2.125 2.125 0 0 1-.08-.343 3.123 3.123 0 0 0-.063-.3 2.48 2.48 0 0 1-1.103.95 3.41 3.41 0 0 1-1.513.386c-.911 0-1.579-.235-2.004-.705-.424-.469-.633-1.088-.627-1.855zm2.619-.265a.724.724 0 0 0 .232.564c.197.154.445.23.696.21.329-.007.647-.118.907-.317.288-.2.515-.473.659-.79v-.966c-1.663-.002-2.494.43-2.494 1.299zm10.738.774l.481-.071c.153 0 .284.173.391.519.085.242.139.494.159.749 0 .575-.57.863-1.71.863-1.735 0-2.601-.95-2.601-2.852v-9.998c0-.376.356-.564 1.068-.564h.498c.712 0 1.068.188 1.068.564v10.038c.008.502.223.752.646.752zm5.29 0l.481-.071c.153 0 .284.173.391.519.085.242.139.494.159.749 0 .575-.57.863-1.71.863-1.734 0-2.6-.95-2.599-2.852v-9.998c0-.376.355-.564 1.068-.564h.497c.713 0 1.069.188 1.069.564v10.038c.002.502.217.752.644.752zm2.787.819c-.765-.828-1.149-2.022-1.149-3.583 0-1.56.384-2.729 1.149-3.504.765-.772 1.816-1.158 3.152-1.158 1.335 0 2.311.422 2.928 1.269.625.845.936 1.94.936 3.281 0 .14-.121.349-.365.625-.243.277-.424.415-.543.413h-4.533c.059.67.261 1.145.606 1.427.374.291.842.442 1.318.423a4.34 4.34 0 0 0 1.531-.272c.487-.182.737-.272.748-.272.179 0 .377.173.596.519.179.24.292.522.33.818 0 .386-.371.695-1.113.925a7.149 7.149 0 0 1-2.092.343c-1.567-.009-2.734-.427-3.499-1.254zm4.462-4.41a2.323 2.323 0 0 0-.32-1.295 1.078 1.078 0 0 0-.963-.484c-.879 0-1.414.592-1.604 1.778h2.887z" fill="#5F6062"/><mask id="b" maskUnits="userSpaceOnUse" x="161" y="21" width="10" height="13"><path fill-rule="evenodd" clip-rule="evenodd" d="M161.693 21.03H170v12.878h-8.307V21.031z" fill="#fff"/></mask><g mask="url(#b)"><path fill-rule="evenodd" clip-rule="evenodd" d="M161.693 21.419c0-.258.362-.387 1.086-.387h.57c.582 0 .915.125.998.372l1.042 3.253c.107.328.273 1.037.499 2.125h.07c.238-1.129.404-1.836.498-2.125l1.05-3.255c.084-.246.417-.37.998-.371h.428c.713 0 1.068.128 1.068.386a1.265 1.265 0 0 1-.052.316l-4.076 11.804c-.095.246-.427.37-.998.371h-.302c-.713 0-1.069-.124-1.069-.37a.757.757 0 0 1 .071-.317l1.122-2.94-2.929-8.538a1.569 1.569 0 0 1-.074-.324z" fill="#5F6062"/></g><path fill-rule="evenodd" clip-rule="evenodd" d="M42.591 19.827v-2.801c-4.205.432-7.99 2.716-10.301 6.215l2.435 1.397c1.8-2.648 4.667-4.4 7.866-4.811zm2.613 22.008v2.789a14.058 14.058 0 0 0 9.928-5.363l-2.459-1.403a11.244 11.244 0 0 1-7.469 3.977zm9.936-11.214a10.899 10.899 0 0 1-1.145 4.87l2.438 1.392c1.87-3.64 2.02-7.91.407-11.668l-2.46 1.402c.503 1.277.76 2.635.76 4.004zm-1.89-6.092l2.443-1.394c-2.37-3.515-6.23-5.771-10.489-6.129v2.788a11.237 11.237 0 0 1 8.045 4.735zM35.298 37.764l-2.453 1.397a14.06 14.06 0 0 0 9.752 5.444v-2.803a11.242 11.242 0 0 1-7.3-4.038zm9.068-2.4c-2.088.001-3.917-1.385-4.458-3.378a4.54 4.54 0 0 1 2.15-5.13 4.653 4.653 0 0 1 5.57.727l1.696-1.677c-2.718-2.689-7.118-2.713-9.866-.054a6.874 6.874 0 0 0-.155 9.751c2.662 2.744 7.062 2.856 9.863.253L47.47 34.18a4.628 4.628 0 0 1-3.103 1.185z" fill="#797A7D"/><mask id="c" maskUnits="userSpaceOnUse" x="30" y="17" width="140" height="30"><path fill-rule="evenodd" clip-rule="evenodd" d="M30 46.737h140V17H30v29.737z" fill="#fff"/></mask><g mask="url(#c)"><path d="M71.797 38.307l.16-1.475h-.064l-.456 1.188-1.58 2.769h-.468l-1.665-2.78-.467-1.177h-.053l.212 1.464v3.861h-1.379v-7.425h1.326l1.984 3.395.35.848h.042l.319-.87 1.877-3.373h1.315v7.425h-1.453v-3.85zm6.935 3.394c-.212.17-.502.315-.87.435a3.84 3.84 0 0 1-1.156.17c-.855 0-1.481-.248-1.877-.743-.396-.502-.594-1.188-.594-2.058 0-.933.223-1.633.668-2.1.446-.467 1.071-.7 1.878-.7.268 0 .53.035.784.106.255.07.481.188.68.35.197.163.356.382.477.658.12.276.18.619.18 1.029 0 .148-.01.307-.032.477-.014.17-.039.347-.074.53h-3.182c.021.446.134.782.34 1.008.211.226.55.34 1.018.34a2.197 2.197 0 0 0 1.304-.404l.456.902zm-1.973-3.893c-.36 0-.629.11-.806.33-.17.211-.272.498-.307.858h1.972c.029-.382-.031-.675-.18-.88-.141-.205-.368-.308-.679-.308zm6.13 4.35v-2.886c0-.488-.047-.834-.138-1.04-.092-.204-.283-.307-.573-.307-.24 0-.435.067-.584.202a1.202 1.202 0 0 0-.34.498v3.532h-1.378v-5.303h1.071l.16.7h.042a2.42 2.42 0 0 1 .615-.594c.255-.17.58-.255.976-.255.34 0 .615.07.827.212.22.135.39.364.51.69.162-.276.37-.495.625-.658.255-.163.562-.244.923-.244.297 0 .548.035.753.106.212.07.382.195.51.371.134.17.233.4.296.69.064.29.096.657.096 1.103v3.182H85.9v-2.98c0-.418-.045-.729-.137-.934-.085-.212-.28-.318-.583-.318-.248 0-.446.067-.595.202a1.237 1.237 0 0 0-.318.551v3.48h-1.379zm5.523-7.426h1.378v2.546h.043c.148-.17.34-.304.573-.403.233-.1.491-.149.774-.149.636 0 1.12.22 1.453.658.34.431.51 1.093.51 1.983 0 .955-.238 1.68-.711 2.175-.467.495-1.11.742-1.93.742-.453 0-.867-.038-1.242-.116-.375-.07-.658-.152-.849-.244v-7.192zm2.365 3.161c-.255 0-.463.067-.626.202-.155.127-.276.314-.36.562v2.312c.113.057.233.096.36.117.134.021.276.032.424.032.375 0 .658-.135.849-.403.198-.276.297-.711.297-1.305 0-1.011-.315-1.517-.944-1.517zm7.564 3.808c-.212.17-.502.315-.87.435a3.84 3.84 0 0 1-1.156.17c-.855 0-1.481-.248-1.877-.743-.396-.502-.594-1.188-.594-2.058 0-.933.223-1.633.668-2.1.446-.467 1.071-.7 1.878-.7.268 0 .53.035.784.106.255.07.481.188.68.35.197.163.356.382.477.658.12.276.18.619.18 1.029 0 .148-.01.307-.032.477a5.02 5.02 0 0 1-.074.53h-3.182c.021.446.134.782.34 1.008.211.226.55.34 1.017.34a2.197 2.197 0 0 0 1.305-.404l.456.902zm-1.973-3.893c-.36 0-.629.11-.806.33-.17.211-.272.498-.307.858h1.973c.028-.382-.032-.675-.18-.88-.142-.205-.368-.308-.68-.308zm-27.435 14.34a1.796 1.796 0 0 0-.594-.117.977.977 0 0 0-.626.202.929.929 0 0 0-.328.498v3.426h-1.38v-5.303h1.072l.16.7h.041c.12-.262.283-.464.488-.605a1.24 1.24 0 0 1 .722-.212c.184 0 .392.039.626.117l-.18 1.294z" fill="#5F6062"/></g><rect width="199" height="60" rx="5" fill="#fff" fill-opacity=".5"/></svg>