<svg id="Layer_1" xmlns="http://www.w3.org/2000/svg" viewBox="0 0 22 191"><style>.st0{fill:#e4364f}.st1{fill:#fff}.st2{fill:#e5e5e5}</style><g id="Component" transform="translate(9070.5 -1569.5)"><g id="Rectangle_2366"><path class="st0" d="M-9059.5 1572c4.7 0 8.5 3.8 8.5 8.5s-3.8 8.5-8.5 8.5-8.5-3.8-8.5-8.5 3.8-8.5 8.5-8.5z"/><path class="st1" d="M-9059.5 1591.5c-6.1 0-11-4.9-11-11s4.9-11 11-11 11 4.9 11 11-4.9 11-11 11zm0-17c-3.3 0-6 2.7-6 6s2.7 6 6 6 6-2.7 6-6-2.7-6-6-6z"/></g></g><path class="st2" d="M12 191h-2v-9h2v9zm0-20h-2v-10h2v10zm0-21h-2v-10h2v10zm0-21h-2v-10h2v10zm0-21h-2V98h2v10zm0-21h-2V77h2v10zm0-21h-2V56h2v10z" id="Line_174"/><path class="st2" d="M10 22h2v24h-2z" id="Line_175"/></svg>