<svg width="41" height="40" viewBox="0 0 41 40" fill="none" xmlns="http://www.w3.org/2000/svg"><path fill-rule="evenodd" clip-rule="evenodd" d="M2.952 0H37.04C38.673 0 40 1.292 40 2.885v34.229C40 38.706 38.672 40 37.04 40H2.95C1.324 40 0 38.706 0 37.114V2.884C.001 1.293 1.325 0 2.951 0zm21.942 28.45h3.559v-6.28c0-3.084-.666-5.455-4.27-5.455-1.731 0-2.893.95-3.369 1.85h-.049v-1.566h-3.411V28.45h3.556v-5.664c0-1.495.282-2.942 2.134-2.942 1.826 0 1.85 1.709 1.85 3.036v5.57zM13.34 15.433a2.064 2.064 0 1 1-.002-4.128 2.064 2.064 0 0 1 .002 4.128zm1.78 13.018h-3.562V16.998h3.563V28.45z" fill="#0077B5"/></svg>