<svg width="199" height="60" viewBox="0 0 199 60" fill="none" xmlns="http://www.w3.org/2000/svg">
<mask id="mask0" mask-type="alpha" maskUnits="userSpaceOnUse" x="30" y="25" width="4" height="12">
<path fill-rule="evenodd" clip-rule="evenodd" d="M30 25.5259H33.8954V36.9631H30V25.5259Z" fill="white"/>
</mask>
<g mask="url(#mask0)">
<path fill-rule="evenodd" clip-rule="evenodd" d="M32.8137 30.8147C32.8128 29.4878 33.0545 28.1725 33.5262 26.9312L31.0659 25.5259C29.5188 29.2149 29.6615 33.3855 31.4565 36.9631L33.8954 35.5711C33.1802 34.0855 32.8101 32.4599 32.8137 30.8147Z" fill="#797A7D"/>
</g>
<path fill-rule="evenodd" clip-rule="evenodd" d="M64.6271 24.0785C64.6271 19.8999 66.6094 17.8106 70.5748 17.8106C71.4247 17.8079 72.2709 17.9265 73.0868 18.1619C73.8938 18.3973 74.2969 18.6907 74.2969 19.0421C74.2969 19.2998 74.1578 19.6404 73.8796 20.0631C73.6005 20.4866 73.3543 20.698 73.1394 20.6962C73.0101 20.6632 72.8853 20.6159 72.7658 20.5553C72.0578 20.2557 71.2927 20.1121 70.5222 20.1326C68.4677 20.1326 67.4413 21.4622 67.4413 24.1213C67.4413 26.7795 68.4561 28.1091 70.4875 28.1091C71.3355 28.11 72.1746 27.9298 72.9459 27.5803C73.0922 27.5036 73.2482 27.4447 73.4087 27.4046C73.6584 27.4046 73.8965 27.607 74.1212 28.0128C74.304 28.291 74.419 28.6075 74.4592 28.9375C74.4592 29.4065 74.0196 29.7712 73.1412 30.0298C72.2798 30.2849 71.3863 30.415 70.4875 30.4159C68.4927 30.4159 67.0178 29.9014 66.0627 28.8715C65.1068 27.8424 64.6289 26.2445 64.6271 24.0785Z" fill="#5F6062"/>
<path fill-rule="evenodd" clip-rule="evenodd" d="M75.9551 29.7458V24.1654C75.9721 23.5465 75.9364 22.9286 75.8481 22.316C75.7991 22.1073 75.7634 21.896 75.7402 21.6829C75.7402 21.4947 75.981 21.3538 76.4625 21.2602C76.8174 21.1817 77.1777 21.1344 77.5406 21.1193C77.702 21.105 77.8634 21.1291 78.0132 21.1888C78.0988 21.2406 78.1675 21.3172 78.2085 21.4082C78.2558 21.509 78.2923 21.5901 78.3164 21.6561C78.3503 21.7622 78.377 21.8719 78.3958 21.9816C78.4252 22.1341 78.4466 22.2286 78.4582 22.2634C78.9576 21.3716 79.6041 20.9258 80.3995 20.9258C80.7802 20.9258 81.0442 21.0221 81.1922 21.2156C81.3393 21.4046 81.4178 21.6374 81.4151 21.8755C81.4035 22.1893 81.35 22.5006 81.2546 22.8002C81.1485 23.1693 81.0183 23.3548 80.8641 23.3548C80.7374 23.345 80.6117 23.3218 80.4895 23.2853C80.3388 23.2416 80.1837 23.2175 80.0267 23.213C79.4328 23.213 78.9585 23.5073 78.6027 24.0941V29.744C78.6027 30.1194 78.2469 30.3076 77.5353 30.3076H77.0368C76.3154 30.3076 75.9551 30.1203 75.9551 29.7458Z" fill="#5F6062"/>
<path fill-rule="evenodd" clip-rule="evenodd" d="M81.546 21.4187C81.546 21.161 81.908 21.0325 82.6321 21.0325H83.2019C83.7842 21.0325 84.1168 21.1565 84.1997 21.4035L85.2502 24.6574C85.3572 24.9855 85.523 25.6936 85.7486 26.7815H85.8182C86.0572 25.6534 86.223 24.9463 86.3167 24.6574L87.3671 21.4017C87.4509 21.1556 87.7826 21.0317 88.3649 21.0308H88.793C89.5046 21.0308 89.8612 21.1592 89.8612 21.4169C89.8568 21.5239 89.839 21.63 89.8077 21.7334L85.7308 33.5371C85.6354 33.7832 85.3028 33.9063 84.733 33.9081H84.4298C83.7182 33.9081 83.3624 33.7841 83.3624 33.5371C83.3624 33.4283 83.3865 33.3204 83.4319 33.2206L84.5591 30.2734L81.6298 21.7352C81.5914 21.6327 81.5629 21.5266 81.546 21.4187Z" fill="#5F6062"/>
<path fill-rule="evenodd" clip-rule="evenodd" d="M91.1809 33.3441V24.1656C91.1979 23.5467 91.1622 22.9279 91.0739 22.3162C91.0249 22.1075 90.9883 21.8962 90.966 21.683C90.966 21.4949 91.2059 21.354 91.6865 21.2604C92.0414 21.1819 92.4017 21.1346 92.7646 21.1195C92.9251 21.1052 93.0874 21.1293 93.2372 21.189C93.3228 21.2407 93.3906 21.3174 93.4325 21.4084C93.4726 21.4913 93.5092 21.5769 93.5395 21.6634C93.5725 21.7677 93.5984 21.873 93.6198 21.98C93.6501 22.12 93.6706 22.2083 93.6822 22.2448C93.906 21.8471 94.2359 21.519 94.6354 21.2951C95.0697 21.0446 95.5655 20.9162 96.0684 20.9242C97.0538 20.9242 97.8554 21.3433 98.4725 22.1824C99.0896 23.0215 99.3981 24.1799 99.3981 25.6574C99.3981 27.1306 99.0691 28.2925 98.4101 29.1432C97.7511 29.9939 96.8282 30.4192 95.6413 30.4192C94.9921 30.4353 94.3554 30.2435 93.8249 29.8735V33.3476C93.8249 33.7239 93.4691 33.9112 92.7566 33.9112H92.259C91.5403 33.9041 91.1809 33.715 91.1809 33.3441ZM95.0626 28.3618C96.1665 28.3618 96.7194 27.4781 96.7194 25.7116C96.7194 23.9442 96.2387 23.0587 95.2775 23.0552C94.7077 23.0552 94.2208 23.4012 93.8168 24.094V28.0203C94.1958 28.2361 94.6256 28.3511 95.0626 28.3538V28.3618Z" fill="#5F6062"/>
<path fill-rule="evenodd" clip-rule="evenodd" d="M104.788 28.354L105.268 28.2827C105.422 28.2827 105.552 28.4557 105.659 28.8017C105.744 29.0433 105.798 29.2957 105.818 29.5507C105.818 30.1259 105.249 30.4139 104.11 30.4139C102.376 30.4139 101.509 29.4633 101.509 27.5622V23.1232H101.223C100.867 23.1232 100.688 22.8298 100.688 22.2422V21.9551C100.688 21.3683 100.867 21.0749 101.223 21.0749H101.509L101.743 19.3932C101.803 19.0177 102.124 18.8296 102.706 18.8296H103.258C103.852 18.8296 104.149 19.0177 104.149 19.3932V21.0651H105.022C105.379 21.0651 105.557 21.3585 105.557 21.9453V22.2449C105.557 22.8316 105.379 23.125 105.022 23.125H104.146V27.597C104.146 28.1017 104.36 28.354 104.788 28.354Z" fill="#5F6062"/>
<path fill-rule="evenodd" clip-rule="evenodd" d="M108.082 29.19C107.346 28.3741 106.979 27.197 106.979 25.6597C106.979 24.1215 107.346 22.9516 108.082 22.1481C108.818 21.3384 109.892 20.9336 111.306 20.9336C112.72 20.9336 113.792 21.3384 114.52 22.1481C115.245 22.9524 115.608 24.1233 115.608 25.6615C115.608 27.1997 115.243 28.3759 114.512 29.1918C113.782 30.0077 112.711 30.4161 111.298 30.4161C109.886 30.4161 108.814 30.0068 108.082 29.19ZM109.644 25.6697C109.644 27.4594 110.194 28.3547 111.292 28.3547C112.391 28.3547 112.94 27.4594 112.94 25.6697C112.94 23.8792 112.391 22.9839 111.292 22.9839C110.194 22.9839 109.646 23.8792 109.65 25.6697H109.644Z" fill="#5F6062"/>
<path fill-rule="evenodd" clip-rule="evenodd" d="M120.726 18.3026C120.726 18.0449 121.088 17.9165 121.812 17.9165H122.398C122.991 17.9165 123.342 18.0868 123.449 18.4266L126.051 26.6652H126.124L128.795 18.4266C128.914 18.0868 129.263 17.9165 129.846 17.9165H130.398C131.11 17.9165 131.466 18.0449 131.466 18.3026C131.464 18.4105 131.446 18.5166 131.413 18.6192L127.567 29.9387C127.484 30.1848 127.151 30.3078 126.569 30.3096H125.643C125.062 30.3096 124.729 30.1857 124.645 29.9387L120.798 18.6192C120.764 18.5166 120.739 18.4105 120.726 18.3026Z" fill="#5F6062"/>
<path fill-rule="evenodd" clip-rule="evenodd" d="M132.372 27.8445C132.37 27.5431 132.4 27.2417 132.462 26.9465C132.542 26.6335 132.681 26.3383 132.873 26.0762C133.093 25.7569 133.385 25.4921 133.728 25.3039C134.57 24.8117 135.822 24.5647 137.485 24.5647V23.986C137.485 23.3163 137.022 22.9819 136.096 22.9819C135.437 22.9828 134.786 23.1273 134.191 23.4046C134.071 23.4652 133.945 23.5125 133.815 23.5455C133.637 23.5455 133.439 23.3636 133.219 22.9989C133.04 22.7465 132.927 22.454 132.89 22.1482C132.89 21.8316 133.219 21.5498 133.878 21.3028C134.653 21.0371 135.471 20.9113 136.291 20.9318C138.844 20.9318 140.121 21.9118 140.121 23.8718V27.1668C140.114 27.7785 140.15 28.3902 140.228 28.9966L140.335 29.7189C140.335 29.907 140.096 30.0479 139.615 30.1415C139.261 30.22 138.9 30.2673 138.537 30.2824C138.376 30.2967 138.215 30.2726 138.064 30.2129C137.975 30.1567 137.907 30.0738 137.87 29.9757C137.823 29.8633 137.785 29.7822 137.762 29.7108C137.726 29.5985 137.699 29.4843 137.682 29.3675C137.652 29.2034 137.631 29.1027 137.619 29.0679C137.356 29.487 136.972 29.8178 136.516 30.0185C136.049 30.2619 135.531 30.3939 135.003 30.4037C134.092 30.4037 133.424 30.1692 132.999 29.6992C132.575 29.2302 132.366 28.6113 132.372 27.8445ZM134.991 27.5796C134.981 27.7927 135.066 27.9978 135.223 28.1441C135.42 28.2983 135.668 28.3732 135.919 28.3545C136.248 28.3474 136.566 28.2359 136.826 28.0371C137.114 27.8373 137.341 27.5636 137.485 27.2461V26.2813C135.822 26.2786 134.991 26.7111 134.991 27.5796Z" fill="#5F6062"/>
<path fill-rule="evenodd" clip-rule="evenodd" d="M145.729 28.3543L146.21 28.2829C146.363 28.2829 146.494 28.4559 146.601 28.8019C146.686 29.0436 146.74 29.2959 146.76 29.551C146.76 30.1261 146.19 30.4141 145.05 30.4141C143.315 30.4141 142.449 29.4636 142.449 27.5624V17.5636C142.449 17.1882 142.805 17 143.517 17H144.015C144.727 17 145.083 17.1882 145.083 17.5636V27.6017C145.091 28.1037 145.306 28.3543 145.729 28.3543Z" fill="#5F6062"/>
<path fill-rule="evenodd" clip-rule="evenodd" d="M151.019 28.3543L151.5 28.2829C151.653 28.2829 151.784 28.4559 151.891 28.8019C151.976 29.0436 152.03 29.2959 152.05 29.551C152.05 30.1261 151.48 30.4141 150.34 30.4141C148.606 30.4141 147.74 29.4636 147.741 27.5624V17.5636C147.741 17.1882 148.096 17 148.809 17H149.306C150.019 17 150.375 17.1882 150.375 17.5636V27.6017C150.377 28.1037 150.592 28.3543 151.019 28.3543Z" fill="#5F6062"/>
<path fill-rule="evenodd" clip-rule="evenodd" d="M153.806 29.1726C153.041 28.3451 152.657 27.151 152.657 25.5896C152.657 24.0291 153.041 22.861 153.806 22.0861C154.571 21.3138 155.622 20.9277 156.958 20.9277C158.293 20.9277 159.269 21.3504 159.886 22.1967C160.511 23.042 160.822 24.1361 160.822 25.4782C160.822 25.6182 160.701 25.8268 160.457 26.1033C160.214 26.3797 160.033 26.5179 159.914 26.5161H155.381C155.44 27.1858 155.642 27.6611 155.987 27.9429C156.361 28.2345 156.829 28.3852 157.305 28.3656C157.827 28.3682 158.346 28.2755 158.836 28.0936C159.323 27.9117 159.573 27.8216 159.584 27.8216C159.763 27.8216 159.961 27.9946 160.18 28.3406C160.359 28.5814 160.472 28.8631 160.51 29.1592C160.51 29.5453 160.139 29.8538 159.397 30.0839C158.721 30.3015 158.016 30.4174 157.305 30.4272C155.738 30.4183 154.571 30.0001 153.806 29.1726ZM158.268 24.7622C158.29 24.3092 158.179 23.8598 157.948 23.4683C157.738 23.1473 157.371 22.9627 156.985 22.9841C156.106 22.9841 155.571 23.5762 155.381 24.7622H158.268Z" fill="#5F6062"/>
<mask id="mask1" mask-type="alpha" maskUnits="userSpaceOnUse" x="161" y="21" width="10" height="13">
<path fill-rule="evenodd" clip-rule="evenodd" d="M161.693 21.0308H170V33.9081H161.693V21.0308Z" fill="white"/>
</mask>
<g mask="url(#mask1)">
<path fill-rule="evenodd" clip-rule="evenodd" d="M161.693 21.4187C161.693 21.161 162.055 21.0325 162.779 21.0325H163.349C163.931 21.0325 164.264 21.1565 164.347 21.4035L165.389 24.6574C165.496 24.9855 165.662 25.6936 165.888 26.7815H165.958C166.196 25.6534 166.362 24.9463 166.456 24.6574L167.506 21.4017C167.59 21.1556 167.923 21.0317 168.504 21.0308H168.932C169.645 21.0308 170 21.1592 170 21.4169C169.996 21.5239 169.979 21.63 169.948 21.7334L165.872 33.5371C165.777 33.7832 165.445 33.9063 164.874 33.9081H164.572C163.859 33.9081 163.503 33.7841 163.503 33.5371C163.504 33.4283 163.527 33.3204 163.574 33.2206L164.696 30.2806L161.767 21.7432C161.731 21.638 161.706 21.5292 161.693 21.4187Z" fill="#5F6062"/>
</g>
<path fill-rule="evenodd" clip-rule="evenodd" d="M42.5912 19.8268V17.0259C38.3858 17.4584 34.6014 19.7421 32.29 23.2412L34.7253 24.6376C36.5257 21.9901 39.3917 20.2379 42.5912 19.8268Z" fill="#797A7D"/>
<path fill-rule="evenodd" clip-rule="evenodd" d="M45.204 41.8346V44.6239C49.1284 44.2948 52.7319 42.3482 55.1315 39.2611L52.673 37.8584C50.8067 40.1002 48.1244 41.5278 45.204 41.8346Z" fill="#797A7D"/>
<path fill-rule="evenodd" clip-rule="evenodd" d="M55.1396 30.6213C55.1414 32.3103 54.7499 33.9769 53.9955 35.4919L56.4326 36.883C58.3034 33.2439 58.4533 28.9734 56.8401 25.2148L54.3799 26.6175C54.8828 27.8945 55.1405 29.2517 55.1396 30.6213Z" fill="#797A7D"/>
<path fill-rule="evenodd" clip-rule="evenodd" d="M53.2494 24.5289L55.6928 23.1351C53.3235 19.62 49.4623 17.3639 45.2043 17.0063V19.7939C48.4564 20.1372 51.3938 21.8662 53.2494 24.5289Z" fill="#797A7D"/>
<path fill-rule="evenodd" clip-rule="evenodd" d="M35.2976 37.7637L32.8454 39.161C35.1897 42.2356 38.7227 44.2081 42.5972 44.6049V41.8023C39.7277 41.4376 37.1123 39.9903 35.2976 37.7637Z" fill="#797A7D"/>
<path fill-rule="evenodd" clip-rule="evenodd" d="M44.3662 35.3642C42.2778 35.3651 40.4489 33.9794 39.9085 31.9855C39.3681 29.9916 40.2501 27.8872 42.0585 26.8554C43.8669 25.8237 46.1515 26.1224 47.6273 27.5831L49.3242 25.9058C46.6062 23.2172 42.2056 23.1931 39.4582 25.8523C36.7108 28.5105 36.6413 32.8612 39.3031 35.6032C41.9648 38.347 46.3646 38.4594 49.1664 35.8565L47.4694 34.1791C46.6205 34.9433 45.5139 35.366 44.3662 35.3642Z" fill="#797A7D"/>
<mask id="mask2" mask-type="alpha" maskUnits="userSpaceOnUse" x="30" y="17" width="140" height="30">
<path fill-rule="evenodd" clip-rule="evenodd" d="M30 46.7371H170V17H30V46.7371Z" fill="white"/>
</mask>
<g mask="url(#mask2)">
<path d="M71.7972 38.3068L71.9563 36.8324H71.8927L71.4366 38.0204L69.8561 40.7889H69.3893L67.724 38.0098L67.2573 36.8324H67.2042L67.4164 38.2962V42.1572H66.0374V34.7321H67.3634L69.3469 38.1265L69.697 38.975H69.7394L70.0576 38.1052L71.9351 34.7321H73.2504V42.1572H71.7972V38.3068ZM78.7323 41.7011C78.5202 41.8708 78.2302 42.0158 77.8625 42.136C77.5019 42.2492 77.1165 42.3057 76.7063 42.3057C75.8507 42.3057 75.2248 42.0582 74.8288 41.5632C74.4328 41.0611 74.2348 40.3752 74.2348 39.5054C74.2348 38.572 74.4576 37.8719 74.9031 37.4052C75.3486 36.9384 75.9744 36.7051 76.7806 36.7051C77.0493 36.7051 77.3109 36.7404 77.5655 36.8111C77.8201 36.8819 78.0464 36.9985 78.2444 37.1612C78.4424 37.3238 78.6015 37.5431 78.7217 37.8188C78.8419 38.0946 78.902 38.4376 78.902 38.8477C78.902 38.9963 78.8914 39.1554 78.8702 39.3251C78.8561 39.4948 78.8313 39.6716 78.7959 39.8554H75.6138C75.635 40.3009 75.7481 40.6368 75.9532 40.8631C76.1653 41.0894 76.5048 41.2026 76.9715 41.2026C77.2614 41.2026 77.5195 41.1601 77.7458 41.0753C77.9792 40.9834 78.156 40.8914 78.2762 40.7995L78.7323 41.7011ZM76.7593 37.8082C76.3987 37.8082 76.13 37.9178 75.9532 38.1371C75.7835 38.3492 75.6809 38.6356 75.6456 38.9963H77.6185C77.6468 38.6144 77.5867 38.3209 77.4382 38.1158C77.2968 37.9108 77.0705 37.8082 76.7593 37.8082ZM82.8884 42.1572V39.272C82.8884 38.7841 82.8424 38.4376 82.7505 38.2325C82.6586 38.0275 82.4676 37.9249 82.1777 37.9249C81.9373 37.9249 81.7428 37.9921 81.5943 38.1265C81.4458 38.2537 81.3326 38.4199 81.2549 38.625V42.1572H79.8759V36.8536H80.9472L81.1064 37.5537H81.1488C81.3114 37.3274 81.5165 37.1294 81.764 36.9596C82.0186 36.7899 82.3439 36.7051 82.7399 36.7051C83.0793 36.7051 83.3551 36.7758 83.5672 36.9172C83.7865 37.0516 83.9562 37.2814 84.0764 37.6067C84.239 37.3309 84.4477 37.1117 84.7022 36.949C84.9568 36.7864 85.2644 36.7051 85.6251 36.7051C85.9221 36.7051 86.1731 36.7404 86.3782 36.8111C86.5903 36.8819 86.76 37.0056 86.8873 37.1824C87.0217 37.3521 87.1207 37.5819 87.1843 37.8719C87.248 38.1618 87.2798 38.5295 87.2798 38.975V42.1572H85.9009V39.1766C85.9009 38.7594 85.8549 38.4482 85.763 38.2431C85.6781 38.031 85.4836 37.9249 85.1796 37.9249C84.9321 37.9249 84.734 37.9921 84.5855 38.1265C84.4441 38.2608 84.338 38.4447 84.2673 38.678V42.1572H82.8884ZM88.4115 34.7321H89.7904V37.2779H89.8328C89.9813 37.1082 90.1723 36.9738 90.4056 36.8748C90.639 36.7758 90.8971 36.7263 91.18 36.7263C91.8164 36.7263 92.3008 36.9455 92.6332 37.3839C92.9726 37.8153 93.1423 38.4765 93.1423 39.3675C93.1423 40.3222 92.9054 41.047 92.4316 41.542C91.9649 42.037 91.3214 42.2845 90.5011 42.2845C90.0485 42.2845 89.6348 42.2456 89.2601 42.1678C88.8853 42.0971 88.6024 42.0158 88.4115 41.9239V34.7321ZM90.7769 37.8931C90.5223 37.8931 90.3137 37.9603 90.1511 38.0946C89.9955 38.2219 89.8753 38.4093 89.7904 38.6568V40.9692C89.9036 41.0258 90.0238 41.0647 90.1511 41.0859C90.2854 41.1071 90.4269 41.1177 90.5754 41.1177C90.9501 41.1177 91.233 40.9834 91.4239 40.7146C91.6219 40.4388 91.7209 40.0039 91.7209 39.4099C91.7209 38.3987 91.4063 37.8931 90.7769 37.8931ZM98.3413 41.7011C98.1292 41.8708 97.8392 42.0158 97.4715 42.136C97.1109 42.2492 96.7255 42.3057 96.3153 42.3057C95.4597 42.3057 94.8338 42.0582 94.4378 41.5632C94.0418 41.0611 93.8438 40.3752 93.8438 39.5054C93.8438 38.572 94.0666 37.8719 94.5121 37.4052C94.9576 36.9384 95.5834 36.7051 96.3896 36.7051C96.6583 36.7051 96.9199 36.7404 97.1745 36.8111C97.4291 36.8819 97.6554 36.9985 97.8534 37.1612C98.0514 37.3238 98.2105 37.5431 98.3307 37.8188C98.4509 38.0946 98.511 38.4376 98.511 38.8477C98.511 38.9963 98.5004 39.1554 98.4792 39.3251C98.4651 39.4948 98.4403 39.6716 98.405 39.8554H95.2228C95.244 40.3009 95.3571 40.6368 95.5622 40.8631C95.7743 41.0894 96.1138 41.2026 96.5805 41.2026C96.8704 41.2026 97.1285 41.1601 97.3548 41.0753C97.5882 40.9834 97.765 40.8914 97.8852 40.7995L98.3413 41.7011ZM96.3684 37.8082C96.0077 37.8082 95.739 37.9178 95.5622 38.1371C95.3925 38.3492 95.2899 38.6356 95.2546 38.9963H97.2275C97.2558 38.6144 97.1957 38.3209 97.0472 38.1158C96.9058 37.9108 96.6795 37.8082 96.3684 37.8082ZM68.9332 52.1477C68.714 52.0699 68.516 52.031 68.3392 52.031C68.0917 52.031 67.8831 52.0982 67.7134 52.2325C67.5507 52.3598 67.4411 52.526 67.3846 52.7311V56.1572H66.0056V50.8536H67.077L67.2361 51.5537H67.2785C67.3987 51.292 67.5614 51.0905 67.7664 50.949C67.9715 50.8076 68.2119 50.7369 68.4877 50.7369C68.6716 50.7369 68.8802 50.7758 69.1136 50.8536L68.9332 52.1477Z" fill="#5F6062"/>
</g>
<rect width="199" height="60" rx="5" fill="white" fill-opacity="0.5"/>
</svg>
