<svg width="190" height="60" viewBox="0 0 190 60" fill="none" xmlns="http://www.w3.org/2000/svg">
<mask id="mask0" mask-type="alpha" maskUnits="userSpaceOnUse" x="25" y="16" width="30" height="30">
<path fill-rule="evenodd" clip-rule="evenodd" d="M25.0001 16.4004H54.043V45.4461H25.0001V16.4004Z" fill="white"/>
</mask>
<g mask="url(#mask0)">
<path fill-rule="evenodd" clip-rule="evenodd" d="M53.6086 34.4356C51.6682 42.2168 43.789 46.9516 36.0078 45.0112C28.2294 43.0722 23.4946 35.1902 25.435 27.4118C27.374 19.6292 35.2532 14.8944 43.033 16.8348C50.8142 18.7738 55.5476 26.6558 53.6086 34.4356Z" fill="#B0B2B4"/>
</g>
<path fill-rule="evenodd" clip-rule="evenodd" d="M45.9246 28.8538C46.2144 26.9218 44.743 25.883 42.7298 25.19L43.3836 22.572L41.7904 22.1744L41.1548 24.7238C40.7348 24.6188 40.305 24.5208 39.878 24.4228L40.5178 21.8566L38.926 21.4604L38.2722 24.077C37.925 23.9986 37.5848 23.9202 37.2544 23.8376L37.2572 23.8292L35.0592 23.2818L34.635 24.9828C34.635 24.9828 35.818 25.2544 35.7928 25.2712C36.4382 25.4322 36.5544 25.8592 36.5348 26.198L35.7914 29.18C35.8362 29.1912 35.8936 29.208 35.9566 29.2332C35.9034 29.2192 35.8474 29.2052 35.7886 29.1912L34.747 33.3688C34.6686 33.5648 34.467 33.8588 34.0162 33.7468C34.033 33.7706 32.8584 33.4584 32.8584 33.4584L32.0674 35.2826L34.1408 35.7992C34.5272 35.8958 34.9052 35.998 35.2762 36.0932L34.6168 38.7406L36.2086 39.1382L36.8624 36.5174C37.2964 36.6364 37.7192 36.7442 38.1322 36.8478L37.4812 39.4546L39.0744 39.8522L39.7338 37.209C42.4512 37.7228 44.4938 37.5156 45.3548 35.0586C46.0478 33.0804 45.3198 31.938 43.8904 31.1946C44.932 30.9538 45.716 30.2692 45.9246 28.8538ZM42.2846 33.9581C41.7918 35.9377 38.4598 34.8681 37.379 34.5993L38.2554 31.0923C39.3348 31.3611 42.7984 31.8959 42.2846 33.9581ZM42.7774 28.8261C42.328 30.6251 39.5546 29.7109 38.6544 29.4869L39.4482 26.3047C40.347 26.5301 43.245 26.9473 42.7774 28.8261Z" fill="white"/>
<path fill-rule="evenodd" clip-rule="evenodd" d="M67.5596 25.1869C68.737 25.1869 69.7548 25.3983 70.6102 25.8127C71.4698 26.2313 72.1782 26.7941 72.7466 27.5039C73.308 28.2165 73.7252 29.0495 73.9954 30.0029C74.2628 30.9605 74.3972 31.9895 74.3972 33.0899C74.3972 34.7825 74.0878 36.3813 73.4606 37.8877C72.8348 39.3969 71.9864 40.7059 70.9056 41.8231C69.8262 42.9375 68.5522 43.8153 67.0822 44.4663C65.615 45.1159 64.0204 45.4407 62.3082 45.4407C62.0856 45.4407 61.6964 45.4337 61.1462 45.4225C60.596 45.4113 59.9646 45.3553 59.2562 45.2587C58.5436 45.1593 57.7904 45.0123 56.9952 44.8149C56.2 44.6217 55.444 44.3515 54.7328 44.0071L61.0916 17.2867L66.7882 16.4033L64.5118 25.8855C64.999 25.6657 65.4904 25.4963 65.9804 25.3717C66.4704 25.2499 66.9968 25.1869 67.5596 25.1869ZM62.7828 40.9217C63.6396 40.9217 64.4488 40.7117 65.2076 40.2973C65.9692 39.8829 66.6258 39.3215 67.176 38.6243C67.7276 37.9229 68.163 37.1347 68.4808 36.2513C68.7986 35.3707 68.9582 34.4509 68.9582 33.4933C68.9582 32.3173 68.7622 31.4003 68.3702 30.7367C67.9782 30.0773 67.2544 29.7441 66.2016 29.7441C65.8572 29.7441 65.412 29.8099 64.8618 29.9275C64.3088 30.0535 63.8146 30.3125 63.3708 30.7017L60.946 40.7719C61.0916 40.7985 61.2218 40.8223 61.3324 40.8447C61.4402 40.8713 61.5592 40.8881 61.6782 40.9007C61.8042 40.9147 61.9484 40.9217 62.122 40.9217H62.7828Z" fill="#6D6F71"/>
<path fill-rule="evenodd" clip-rule="evenodd" d="M80.3036 44.9293H74.8632L79.458 25.5967H84.9348L80.3036 44.9293ZM82.951 23.2405C82.1922 23.2405 81.5034 23.0151 80.8916 22.5629C80.277 22.1121 79.9718 21.4191 79.9718 20.4853C79.9718 19.9715 80.0754 19.4899 80.2826 19.0349C80.4926 18.5813 80.767 18.1893 81.1114 17.8575C81.4544 17.5285 81.8534 17.2653 82.3056 17.0665C82.7592 16.8719 83.2436 16.7739 83.7588 16.7739C84.5176 16.7739 85.2036 16.9993 85.8168 17.4529C86.4272 17.9079 86.7338 18.6009 86.7338 19.5291C86.7338 20.0457 86.6302 20.5287 86.4216 20.9837C86.2144 21.4373 85.94 21.8279 85.5956 22.1597C85.2554 22.4901 84.8536 22.7519 84.4014 22.9493C83.9464 23.1467 83.4648 23.2405 82.951 23.2405Z" fill="#6D6F71"/>
<path fill-rule="evenodd" clip-rule="evenodd" d="M89.7028 20.7799L95.4008 19.8979L94.0022 25.5959H100.105L99.0016 30.0787H92.9368L91.3212 36.8421C91.1714 37.4049 91.0874 37.9313 91.0636 38.4199C91.037 38.9127 91.0986 39.3341 91.247 39.6897C91.3926 40.0453 91.6558 40.3211 92.0366 40.5143C92.416 40.7117 92.9592 40.8111 93.6718 40.8111C94.2584 40.8111 94.831 40.7551 95.384 40.6445C95.9328 40.5367 96.49 40.3841 97.0528 40.1853L97.4588 44.3769C96.7252 44.6472 95.9286 44.8782 95.0704 45.0742C94.2122 45.2715 93.1944 45.3667 92.0184 45.3667C90.3286 45.3667 89.0182 45.1161 88.0844 44.6163C87.152 44.1137 86.494 43.4263 86.0992 42.5555C85.71 41.6889 85.5364 40.688 85.5854 39.5609C85.6358 38.4325 85.8052 37.2453 86.0992 35.9951L89.7028 20.7799Z" fill="#6D6F71"/>
<path fill-rule="evenodd" clip-rule="evenodd" d="M99.8652 37.21C99.8652 35.544 100.134 33.9746 100.673 32.5046C101.211 31.0332 101.986 29.7466 102.99 28.642C103.992 27.543 105.212 26.6736 106.65 26.0338C108.078 25.3982 109.679 25.0776 111.443 25.0776C112.548 25.0776 113.533 25.1826 114.401 25.3912C115.274 25.6026 116.06 25.8756 116.774 26.2172L114.898 30.4844C114.408 30.2856 113.899 30.1106 113.372 29.951C112.847 29.7886 112.205 29.7116 111.445 29.7116C109.627 29.7116 108.192 30.3374 107.124 31.5848C106.059 32.8336 105.524 34.5136 105.524 36.622C105.524 37.8722 105.794 38.8816 106.335 39.6544C106.872 40.4272 107.868 40.8122 109.311 40.8122C110.024 40.8122 110.711 40.738 111.369 40.5924C112.033 40.4454 112.619 40.2606 113.136 40.0422L113.542 44.4144C112.854 44.6818 112.094 44.9226 111.263 45.134C110.428 45.337 109.436 45.4434 108.283 45.4434C106.764 45.4434 105.478 45.2208 104.425 44.7826C103.372 44.3388 102.503 43.748 101.817 43.0004C101.128 42.25 100.634 41.375 100.327 40.3698C100.022 39.366 99.8652 38.309 99.8652 37.21Z" fill="#6D6F71"/>
<path fill-rule="evenodd" clip-rule="evenodd" d="M124.033 45.4415C122.734 45.4415 121.605 45.2441 120.649 44.8521C119.696 44.4615 118.906 43.9113 118.28 43.1973C117.654 42.4889 117.185 41.6489 116.865 40.6815C116.544 39.7141 116.39 38.6417 116.39 37.4685C116.39 35.9957 116.627 34.5229 117.104 33.0543C117.58 31.5829 118.286 30.2613 119.22 29.0867C120.146 27.9093 121.29 26.9475 122.636 26.1971C123.98 25.4523 125.527 25.0771 127.264 25.0771C128.539 25.0771 129.661 25.2759 130.631 25.6665C131.596 26.0571 132.391 26.6115 133.019 27.3213C133.642 28.0339 134.114 28.8697 134.432 29.8385C134.751 30.8045 134.909 31.8797 134.909 33.0543C134.909 34.5215 134.677 35.9943 134.214 37.4671C133.75 38.9329 133.063 40.2587 132.156 41.4361C131.25 42.6107 130.117 43.5725 128.756 44.3201C127.398 45.0677 125.821 45.4415 124.033 45.4415ZM126.752 29.7109C125.945 29.7109 125.231 29.9447 124.621 30.4067C124.009 30.8757 123.494 31.4637 123.079 32.1721C122.661 32.8847 122.35 33.6631 122.14 34.5073C121.931 35.3529 121.829 36.1537 121.829 36.9139C121.829 38.1403 122.028 39.0965 122.416 39.7839C122.809 40.4671 123.519 40.8115 124.548 40.8115C125.357 40.8115 126.067 40.5791 126.68 40.1115C127.289 39.6481 127.804 39.0587 128.223 38.3475C128.639 37.6391 128.952 36.8593 129.162 36.0137C129.368 35.1695 129.473 34.3659 129.473 33.6071C129.473 32.3835 129.276 31.4245 128.884 30.7385C128.492 30.0539 127.781 29.7109 126.752 29.7109Z" fill="#6D6F71"/>
<path fill-rule="evenodd" clip-rule="evenodd" d="M140.838 44.9293H135.393L139.988 25.5967H145.468L140.838 44.9293ZM143.481 23.2405C142.722 23.2405 142.035 23.0151 141.424 22.5629C140.811 22.1121 140.505 21.4191 140.505 20.4853C140.505 19.9715 140.61 19.4899 140.817 19.0349C141.024 18.5813 141.301 18.1893 141.644 17.8575C141.987 17.5285 142.388 17.2653 142.84 17.0665C143.292 16.8719 143.775 16.7739 144.289 16.7739C145.049 16.7739 145.736 16.9993 146.348 17.4529C146.961 17.9079 147.269 18.6009 147.269 19.5291C147.269 20.0457 147.16 20.5287 146.954 20.9837C146.749 21.4373 146.471 21.8279 146.13 22.1597C145.785 22.4901 145.388 22.7519 144.936 22.9493C144.481 23.1467 143.998 23.2405 143.481 23.2405Z" fill="#6D6F71"/>
<mask id="mask1" mask-type="alpha" maskUnits="userSpaceOnUse" x="144" y="25" width="21" height="20">
<path fill-rule="evenodd" clip-rule="evenodd" d="M144.94 25.1514H164.107V44.9278H144.94V25.1514Z" fill="white"/>
</mask>
<g mask="url(#mask1)">
<path fill-rule="evenodd" clip-rule="evenodd" d="M149.389 26.4758C149.802 26.3554 150.262 26.2098 150.764 26.0516C151.268 25.8934 151.83 25.7478 152.458 25.6148C153.079 25.4776 153.781 25.367 154.552 25.2816C155.322 25.1934 156.201 25.1514 157.177 25.1514C160.047 25.1514 162.024 25.9872 163.116 27.6532C164.208 29.3192 164.395 31.5984 163.688 34.4894L161.185 44.9278H155.71L158.135 34.7078C158.283 34.0708 158.399 33.4534 158.486 32.8514C158.571 32.2536 158.567 31.7258 158.465 31.2708C158.368 30.8214 158.142 30.4518 157.787 30.1676C157.429 29.8862 156.886 29.7448 156.151 29.7448C155.442 29.7448 154.72 29.8218 153.984 29.9688L150.418 44.9264H144.94L149.389 26.4758Z" fill="#6D6F71"/>
</g>
<rect width="190" height="60" rx="5" fill="white" fill-opacity="0.5"/>
</svg>
