<svg width="190" height="60" viewBox="0 0 190 60" fill="none" xmlns="http://www.w3.org/2000/svg">
<path fill-rule="evenodd" clip-rule="evenodd" d="M52.9258 22.3491H55.8073L61.5473 36.4997H58.5948L57.4268 33.5846H51.3368L50.1229 36.4997H47.1704L52.9258 22.3491ZM54.3843 26.1006L52.3821 30.9594H56.375L54.3843 26.1006Z" fill="black"/>
<path fill-rule="evenodd" clip-rule="evenodd" d="M66.1889 26.0336V27.1881C66.6894 26.7135 67.2302 26.3577 67.8123 26.1199C68.3944 25.8831 69.0167 25.7642 69.6793 25.7642C71.1196 25.7642 72.3441 26.2801 73.3519 27.3128C74.3597 28.3455 74.8641 29.6698 74.8641 31.2855C74.8641 32.8447 74.3424 34.1479 73.3011 35.1959C72.2597 36.245 71.0246 36.7695 69.5978 36.7695C68.962 36.7695 68.3704 36.6621 67.8219 36.4464C67.2744 36.2325 66.7297 35.8806 66.1889 35.3935V40.328H63.4397V26.0336H66.1889ZM69.1011 28.1885C68.2284 28.1885 67.5045 28.4704 66.9291 29.0352C66.3547 29.6 66.0671 30.3374 66.0671 31.2474C66.0671 32.1775 66.3547 32.9293 66.9291 33.5037C67.5045 34.0771 68.2284 34.3648 69.1011 34.3648C69.9458 34.3648 70.6583 34.0723 71.2365 33.4893C71.8147 32.9053 72.1043 32.1612 72.1043 31.257C72.1043 30.3594 71.8195 29.624 71.2519 29.0496C70.6832 28.4761 69.9669 28.1885 69.1011 28.1885Z" fill="black"/>
<path fill-rule="evenodd" clip-rule="evenodd" d="M79.9062 26.0336V27.1881C80.4067 26.7135 80.9475 26.3577 81.5296 26.1199C82.1116 25.8831 82.733 25.7642 83.3966 25.7642C84.8368 25.7642 86.0614 26.2801 87.0692 27.3128C88.077 28.3455 88.5814 29.6698 88.5814 31.2855C88.5814 32.8447 88.0597 34.1479 87.0184 35.1959C85.977 36.245 84.7419 36.7695 83.3151 36.7695C82.6793 36.7695 82.0877 36.6621 81.5392 36.4464C80.9916 36.2325 80.447 35.8806 79.9062 35.3935V40.328H77.157V26.0336H79.9062ZM82.8183 28.1885C81.9457 28.1885 81.2218 28.4704 80.6464 29.0352C80.072 29.6 79.7844 30.3374 79.7844 31.2474C79.7844 32.1775 80.072 32.9293 80.6464 33.5037C81.2218 34.0771 81.9457 34.3648 82.8183 34.3648C83.6631 34.3648 84.3756 34.0723 84.9538 33.4893C85.532 32.9053 85.8216 32.1612 85.8216 31.257C85.8216 30.3594 85.5368 29.624 84.9692 29.0496C84.4005 28.4761 83.6842 28.1885 82.8183 28.1885Z" fill="black"/>
<path fill-rule="evenodd" clip-rule="evenodd" d="M90.5699 36.5H93.3402V21.9937H90.5699V36.5Z" fill="black"/>
<path fill-rule="evenodd" clip-rule="evenodd" d="M96.936 21.7236C97.4212 21.7236 97.8383 21.8905 98.1854 22.2242C98.5325 22.5569 98.7061 22.9616 98.7061 23.4362C98.7061 23.9042 98.5345 24.3031 98.1902 24.6339C97.8469 24.9638 97.4356 25.1287 96.9561 25.1287C96.4642 25.1287 96.0442 24.9609 95.6961 24.6243C95.349 24.2877 95.1754 23.8783 95.1754 23.3979C95.1754 22.9357 95.348 22.5416 95.6913 22.2146C96.0356 21.8876 96.4508 21.7236 96.936 21.7236ZM95.5513 36.4992H98.3216V26.0327H95.5513V36.4992Z" fill="black"/>
<path fill-rule="evenodd" clip-rule="evenodd" d="M111.643 28.1499L109.336 29.3524C108.903 28.9228 108.475 28.6246 108.051 28.4577C107.629 28.2909 107.133 28.2074 106.563 28.2074C105.528 28.2074 104.69 28.5009 104.049 29.0868C103.409 29.6727 103.089 30.4235 103.089 31.3392C103.089 32.2291 103.398 32.9559 104.014 33.5188C104.63 34.0827 105.439 34.3646 106.441 34.3646C107.681 34.3646 108.646 33.9637 109.336 33.1621L111.521 34.5794C110.337 36.0398 108.666 36.7695 106.509 36.7695C104.568 36.7695 103.047 36.2239 101.948 35.1336C100.849 34.0433 100.3 32.767 100.3 31.3047C100.3 30.2921 100.566 29.3591 101.101 28.5057C101.635 27.6532 102.381 26.9829 103.338 26.4958C104.295 26.0077 105.366 25.7642 106.549 25.7642C107.645 25.7642 108.63 25.9713 109.501 26.3846C110.374 26.7988 111.088 27.3866 111.643 28.1499Z" fill="black"/>
<path fill-rule="evenodd" clip-rule="evenodd" d="M122.286 26.0336H125.056V36.5001H122.286V35.3935C121.745 35.8806 121.203 36.2325 120.659 36.4464C120.116 36.6621 119.526 36.7695 118.891 36.7695C117.465 36.7695 116.232 36.245 115.192 35.1959C114.151 34.1479 113.632 32.8447 113.632 31.2855C113.632 29.6698 114.134 28.3455 115.141 27.3128C116.148 26.2801 117.37 25.7642 118.81 25.7642C119.472 25.7642 120.094 25.8831 120.675 26.1199C121.255 26.3577 121.793 26.7135 122.286 27.1881V26.0336ZM119.374 28.1885C118.518 28.1885 117.807 28.4761 117.24 29.0496C116.674 29.624 116.391 30.3594 116.391 31.257C116.391 32.1612 116.679 32.9053 117.255 33.4893C117.832 34.0723 118.541 34.3648 119.384 34.3648C120.254 34.3648 120.975 34.0771 121.548 33.5037C122.121 32.9293 122.407 32.1775 122.407 31.2474C122.407 30.3374 122.121 29.6 121.548 29.0352C120.975 28.4704 120.251 28.1885 119.374 28.1885Z" fill="black"/>
<path fill-rule="evenodd" clip-rule="evenodd" d="M128.191 22.1758H130.961V26.0335H132.604V28.2936H130.961V36.4999H128.191V28.2936H126.77V26.0335H128.191V22.1758Z" fill="black"/>
<path fill-rule="evenodd" clip-rule="evenodd" d="M134.075 26.0332H136.875V31.0742C136.875 32.0551 136.947 32.7369 137.089 33.1176C137.232 33.5002 137.46 33.7965 137.776 34.0074C138.091 34.2194 138.478 34.3258 138.94 34.3258C139.401 34.3258 139.793 34.2213 140.115 34.0132C140.437 33.8042 140.676 33.4983 140.832 33.0936C140.947 32.7925 141.005 32.1481 141.005 31.1605V26.0332H143.774V30.4681C143.774 32.2958 143.622 33.5462 143.318 34.2194C142.946 35.0402 142.398 35.6702 141.674 36.1103C140.95 36.5485 140.031 36.7691 138.915 36.7691C137.704 36.7691 136.725 36.5121 135.978 35.9991C135.23 35.4861 134.704 34.7707 134.4 33.854C134.183 33.2192 134.075 32.0647 134.075 30.3905V26.0332Z" fill="black"/>
<path fill-rule="evenodd" clip-rule="evenodd" d="M145.905 26.0336H148.28V27.3511C148.537 26.8324 148.878 26.4373 149.305 26.1679C149.73 25.8994 150.197 25.7642 150.705 25.7642C151.063 25.7642 151.438 25.8543 151.83 26.0336L150.968 28.2947C150.643 28.1403 150.377 28.0636 150.167 28.0636C149.74 28.0636 149.38 28.3139 149.086 28.8135C148.792 29.314 148.645 30.295 148.645 31.7573L148.655 32.2674V36.5001H145.905V26.0336Z" fill="black"/>
<path fill-rule="evenodd" clip-rule="evenodd" d="M164.259 32.0263H155.362C155.49 32.7704 155.833 33.362 156.391 33.8012C156.949 34.2404 157.661 34.46 158.527 34.46C159.562 34.46 160.451 34.1167 161.196 33.4311L163.529 34.4696C162.947 35.252 162.25 35.8312 161.439 36.2061C160.627 36.5811 159.663 36.769 158.547 36.769C156.815 36.769 155.406 36.2512 154.316 35.2146C153.227 34.18 152.682 32.8826 152.682 31.3244C152.682 29.7268 153.225 28.4016 154.312 27.3468C155.397 26.2911 156.758 25.7637 158.395 25.7637C160.133 25.7637 161.546 26.2911 162.636 27.3468C163.725 28.4016 164.27 29.7949 164.27 31.5257L164.259 32.0263ZM161.489 29.9578C161.307 29.3748 160.945 28.9002 160.407 28.5339C159.868 28.1685 159.243 27.9863 158.532 27.9863C157.76 27.9863 157.082 28.1915 156.5 28.6019C156.133 28.858 155.795 29.3106 155.483 29.9578H161.489Z" fill="black"/>
<path fill-rule="evenodd" clip-rule="evenodd" d="M34.2352 18.959C29.1348 18.959 25 22.879 25 27.7147C25 32.5505 29.1348 36.4715 34.2352 36.4715H43.4704V27.7147C43.4704 22.879 39.3356 18.959 34.2352 18.959Z" fill="black"/>
<path fill-rule="evenodd" clip-rule="evenodd" d="M38.8528 27.7148C38.8528 30.1331 36.7854 32.0931 34.2357 32.0931C31.685 32.0931 29.6176 30.1331 29.6176 27.7148C29.6176 25.2964 31.685 23.3364 34.2357 23.3364C36.7854 23.3364 38.8528 25.2964 38.8528 27.7148Z" fill="white"/>
<path fill-rule="evenodd" clip-rule="evenodd" d="M37.839 27.7149C37.839 29.602 36.2251 31.1315 34.2354 31.1315C32.2447 31.1315 30.6318 29.602 30.6318 27.7149C30.6318 25.8278 32.2447 24.2983 34.2354 24.2983C36.2251 24.2983 37.839 25.8278 37.839 27.7149Z" fill="black"/>
<rect width="190" height="60" rx="5" fill="white" fill-opacity="0.7"/>
</svg>
