<?xml version="1.0" encoding="utf-8"?>
<!-- Generator: Adobe Illustrator 22.0.1, SVG Export Plug-In . SVG Version: 6.00 Build 0)  -->
<svg version="1.1" id="Layer_1" xmlns="http://www.w3.org/2000/svg" xmlns:xlink="http://www.w3.org/1999/xlink" x="0px" y="0px"
	 viewBox="0 0 22 191" style="enable-background:new 0 0 22 191;" xml:space="preserve">
<style type="text/css">
	.st0{fill:#E4364F;}
	.st1{fill:#FFFFFF;}
	.st2{fill:#E5E5E5;}
</style>
<g id="Component" transform="translate(9070.5 -1569.5)">
	<g id="Rectangle_2366">
		<path class="st0" d="M-9059.5,1572L-9059.5,1572c4.7,0,8.5,3.8,8.5,8.5l0,0c0,4.7-3.8,8.5-8.5,8.5l0,0c-4.7,0-8.5-3.8-8.5-8.5l0,0
			C-9068,1575.8-9064.2,1572-9059.5,1572z"/>
		<path class="st1" d="M-9059.5,1591.5c-6.1,0-11-4.9-11-11s4.9-11,11-11s11,4.9,11,11S-9053.4,1591.5-9059.5,1591.5z
			 M-9059.5,1574.5c-3.3,0-6,2.7-6,6s2.7,6,6,6s6-2.7,6-6S-9056.2,1574.5-9059.5,1574.5z"/>
	</g>
</g>
<g id="Line_174">
	<path class="st2" d="M12,191h-2v-9h2V191z M12,171h-2v-10h2V171z M12,150h-2v-10h2V150z M12,129h-2v-10h2V129z M12,108h-2V98h2V108
		z M12,87h-2V77h2V87z M12,66h-2V56h2V66z"/>
</g>
<g id="Line_175">
	<rect x="10" y="22" class="st2" width="2" height="24"/>
</g>
</svg>
