<svg width="41" height="40" viewBox="0 0 41 40" fill="none" xmlns="http://www.w3.org/2000/svg">
<path fill-rule="evenodd" clip-rule="evenodd" d="M2.95183 0H37.0408C38.6728 0 40.0013 1.29224 40.0013 2.88452V37.1138C40.0013 38.7061 38.6728 40 37.0408 40H2.95183C1.32489 40 0.00134277 38.7061 0.00134277 37.1138V2.88452C0.00134277 1.29224 1.32489 0 2.95183 0ZM24.8941 28.4504H28.4528V22.1689C28.4528 19.0847 27.7866 16.7136 24.183 16.7136C22.4518 16.7136 21.2896 17.6631 20.8145 18.5635H20.7655V16.9978H17.3539V28.4504H20.9095V22.7861C20.9095 21.2915 21.1915 19.844 23.0438 19.844C24.8701 19.844 24.8941 21.5527 24.8941 22.8801V28.4504ZM13.3402 15.4331C12.197 15.4331 11.2749 14.5078 11.2749 13.3674C11.2749 12.2297 12.197 11.3035 13.3402 11.3035C14.4784 11.3035 15.4036 12.2297 15.4036 13.3674C15.4036 14.5078 14.4784 15.4331 13.3402 15.4331ZM15.1205 28.4507H11.5579V16.9978H15.1205V28.4507Z" fill="#0077B5"/>
</svg>
